# Blender 4.5.4 LTS
# www.blender.org
mtllib labirint1.mtl
o Cube
v -8.571095 30.000000 -1.000000
v -8.571095 0.000000 -1.000000
v -8.571095 30.000000 1.000000
v -8.571095 0.000000 1.000000
v -78.571091 30.000000 -1.000000
v -78.571091 0.000000 -1.000000
v -78.571091 30.000000 1.000000
v -78.571091 0.000000 1.000000
v 80.000015 30.000225 -1.000000
v 80.000015 0.000226 -1.000000
v 80.000015 30.000225 1.000000
v 80.000015 0.000226 1.000000
v 20.000004 30.000225 -1.000000
v 20.000004 0.000226 -1.000000
v 20.000004 30.000225 1.000000
v 20.000004 0.000226 1.000000
v 78.060043 29.999998 -180.388840
v 78.060043 0.000000 -180.388840
v 80.060043 29.999998 -180.388840
v 80.060043 0.000000 -180.388840
v 78.060059 29.999998 -0.388840
v 78.060059 0.000000 -0.388840
v 80.060059 29.999998 -0.388840
v 80.060059 0.000000 -0.388840
v -78.540695 29.999998 -180.456635
v -78.540695 0.000000 -180.456635
v -76.540695 29.999998 -180.456635
v -76.540695 0.000000 -180.456635
v -78.540688 29.999998 -0.456642
v -78.540688 0.000000 -0.456642
v -76.540688 29.999998 -0.456642
v -76.540688 0.000000 -0.456642
v -8.362736 29.999998 -182.038742
v -8.362736 0.000000 -182.038742
v -8.362736 29.999998 -180.038742
v -8.362736 0.000000 -180.038742
v -78.362732 29.999998 -182.038742
v -78.362732 0.000000 -182.038742
v -78.362732 29.999998 -180.038742
v -78.362732 0.000000 -180.038742
v 80.000015 30.000225 -182.315186
v 80.000015 0.000226 -182.315186
v 80.000015 30.000225 -180.315186
v 80.000015 0.000226 -180.315186
v 20.000004 30.000225 -182.315186
v 20.000004 0.000226 -182.315186
v 20.000004 30.000225 -180.315186
v 20.000004 0.000226 -180.315186
v 20.257740 30.000225 -28.584471
v 20.257740 0.000226 -28.584471
v 22.257740 30.000225 -28.584471
v 22.257740 0.000226 -28.584471
v 20.257744 30.000225 -0.584471
v 20.257744 0.000226 -0.584471
v 22.257748 30.000225 -0.584471
v 22.257748 0.000226 -0.584471
v 50.672031 30.000225 -30.391024
v 50.672031 0.000226 -30.391024
v 50.672031 30.000225 -28.391024
v 50.672031 0.000226 -28.391024
v -49.327969 30.000225 -30.391024
v -49.327969 0.000226 -30.391024
v -49.327969 30.000225 -28.391024
v -49.327969 0.000226 -28.391024
v 48.838924 30.000225 -59.796650
v 48.838924 0.000226 -59.796650
v 50.838917 30.000225 -59.796650
v 50.838917 0.000226 -59.796650
v 48.838924 30.000225 -29.796650
v 48.838924 0.000226 -29.796650
v 50.838917 30.000225 -29.796650
v 50.838917 0.000226 -29.796650
v 19.624550 30.000225 -59.926208
v 19.624550 0.000226 -59.926208
v 19.624550 30.000225 -57.926208
v 19.624550 0.000226 -57.926208
v -10.375454 30.000225 -59.926208
v -10.375454 0.000226 -59.926208
v -10.375454 30.000225 -57.926208
v -10.375454 0.000226 -57.926208
v -11.135410 30.000225 -59.796650
v -11.135410 0.000226 -59.796650
v -9.135410 30.000225 -59.796650
v -9.135410 0.000226 -59.796650
v -11.135410 30.000225 -29.796650
v -11.135410 0.000226 -29.796650
v -9.135410 30.000225 -29.796650
v -9.135410 0.000226 -29.796650
v -36.999725 30.000225 -59.926208
v -36.999725 0.000226 -59.926208
v -36.999725 30.000225 -57.926208
v -36.999725 0.000226 -57.926208
v -76.999725 30.000225 -59.926208
v -76.999725 0.000226 -59.926208
v -76.999725 30.000225 -57.926208
v -76.999725 0.000226 -57.926208
v -38.880825 30.000225 -89.405693
v -38.880825 0.000226 -89.405693
v -36.880825 30.000225 -89.405693
v -36.880825 0.000226 -89.405693
v -38.880821 30.000225 -59.405693
v -38.880821 0.000226 -59.405693
v -36.880821 30.000225 -59.405693
v -36.880821 0.000226 -59.405693
v -8.556049 29.999998 -121.736908
v -8.556049 0.000000 -121.736908
v -8.556049 29.999998 -119.736908
v -8.556049 0.000000 -119.736908
v -76.556046 29.999998 -121.736908
v -76.556046 0.000000 -121.736908
v -76.556046 29.999998 -119.736908
v -76.556046 0.000000 -119.736908
v -10.582481 30.000225 -120.726204
v -10.582481 0.000226 -120.726204
v -8.582481 30.000225 -120.726204
v -8.582481 0.000226 -120.726204
v -10.582481 30.000225 -90.726204
v -10.582481 0.000226 -90.726204
v -8.582481 30.000225 -90.726204
v -8.582481 0.000226 -90.726204
v 51.060528 29.999998 -92.646851
v 51.060528 0.000000 -92.646851
v 51.060528 29.999998 -90.646851
v 51.060528 0.000000 -90.646851
v -8.939476 29.999998 -92.646851
v -8.939476 0.000000 -92.646851
v -8.939476 29.999998 -90.646851
v -8.939476 0.000000 -90.646851
v 20.004330 30.000225 -180.620056
v 20.004330 0.000226 -180.620056
v 22.004330 30.000225 -180.620056
v 22.004330 0.000226 -180.620056
v 20.004333 30.000225 -120.620056
v 20.004333 0.000226 -120.620056
v 22.004337 30.000225 -120.620056
v 22.004337 0.000226 -120.620056
v 51.626804 30.000225 -152.647903
v 51.626804 0.000226 -152.647903
v 51.626804 30.000225 -150.647903
v 51.626804 0.000226 -150.647903
v 21.626804 30.000225 -152.647903
v 21.626804 0.000226 -152.647903
v 21.626804 30.000225 -150.647903
v 21.626804 0.000226 -150.647903
v -19.460312 30.000225 -152.647903
v -19.460312 0.000226 -152.647903
v -19.460312 30.000225 -150.647903
v -19.460312 0.000226 -150.647903
v -49.460312 30.000225 -152.647903
v -49.460312 0.000226 -152.647903
v -49.460312 30.000225 -150.647903
v -49.460312 0.000226 -150.647903
v -21.596689 30.000225 -180.984222
v -21.596689 0.000226 -180.984222
v -19.596689 30.000225 -180.984222
v -19.596689 0.000226 -180.984222
v -21.596689 30.000225 -150.984222
v -21.596689 0.000226 -150.984222
v -19.596689 30.000225 -150.984222
v -19.596689 0.000226 -150.984222
v 49.401249 30.000225 -151.076920
v 49.401249 0.000226 -151.076920
v 51.401249 30.000225 -151.076920
v 51.401249 0.000226 -151.076920
v 49.401249 30.000225 -121.076920
v 49.401249 0.000226 -121.076920
v 51.401249 30.000225 -121.076920
v 51.401249 0.000226 -121.076920
v 20.748501 30.000225 -152.647903
v 20.748501 0.000226 -152.647903
v 20.748501 30.000225 -150.647903
v 20.748501 0.000226 -150.647903
v 6.748493 30.000225 -152.647903
v 6.748493 0.000226 -152.647903
v 6.748493 30.000225 -150.647903
v 6.748493 0.000226 -150.647903
vn -0.0000 1.0000 -0.0000
vn -0.0000 -0.0000 1.0000
vn -1.0000 -0.0000 -0.0000
vn -0.0000 -1.0000 -0.0000
vn 1.0000 -0.0000 -0.0000
vn -0.0000 -0.0000 -1.0000
vt 0.875000 0.500000
vt 0.625000 0.750000
vt 0.625000 0.500000
vt 0.375000 1.000000
vt 0.375000 0.750000
vt 0.625000 0.000000
vt 0.375000 0.250000
vt 0.375000 0.000000
vt 0.375000 0.500000
vt 0.125000 0.750000
vt 0.125000 0.500000
vt 0.625000 0.250000
vt 0.875000 0.750000
vt 0.625000 1.000000
s 0
usemtl Material
f 5/1/1 3/2/1 1/3/1
f 3/2/2 8/4/2 4/5/2
f 7/6/3 6/7/3 8/8/3
f 2/9/4 8/10/4 6/11/4
f 1/3/5 4/5/5 2/9/5
f 5/12/6 2/9/6 6/7/6
f 13/1/1 11/2/1 9/3/1
f 11/2/2 16/4/2 12/5/2
f 15/6/3 14/7/3 16/8/3
f 10/9/4 16/10/4 14/11/4
f 9/3/5 12/5/5 10/9/5
f 13/12/6 10/9/6 14/7/6
f 21/1/1 19/2/1 17/3/1
f 19/2/5 24/4/5 20/5/5
f 23/6/2 22/7/2 24/8/2
f 18/9/4 24/10/4 22/11/4
f 17/3/6 20/5/6 18/9/6
f 21/12/3 18/9/3 22/7/3
f 29/1/1 27/2/1 25/3/1
f 27/2/5 32/4/5 28/5/5
f 31/6/2 30/7/2 32/8/2
f 26/9/4 32/10/4 30/11/4
f 25/3/6 28/5/6 26/9/6
f 29/12/3 26/9/3 30/7/3
f 37/1/1 35/2/1 33/3/1
f 35/2/2 40/4/2 36/5/2
f 39/6/3 38/7/3 40/8/3
f 34/9/4 40/10/4 38/11/4
f 33/3/5 36/5/5 34/9/5
f 37/12/6 34/9/6 38/7/6
f 45/1/1 43/2/1 41/3/1
f 43/2/2 48/4/2 44/5/2
f 47/6/3 46/7/3 48/8/3
f 42/9/4 48/10/4 46/11/4
f 41/3/5 44/5/5 42/9/5
f 45/12/6 42/9/6 46/7/6
f 53/1/1 51/2/1 49/3/1
f 51/2/5 56/4/5 52/5/5
f 55/6/2 54/7/2 56/8/2
f 50/9/4 56/10/4 54/11/4
f 49/3/6 52/5/6 50/9/6
f 53/12/3 50/9/3 54/7/3
f 61/1/1 59/2/1 57/3/1
f 59/2/2 64/4/2 60/5/2
f 63/6/3 62/7/3 64/8/3
f 58/9/4 64/10/4 62/11/4
f 57/3/5 60/5/5 58/9/5
f 61/12/6 58/9/6 62/7/6
f 69/1/1 67/2/1 65/3/1
f 67/2/5 72/4/5 68/5/5
f 71/6/2 70/7/2 72/8/2
f 66/9/4 72/10/4 70/11/4
f 65/3/6 68/5/6 66/9/6
f 69/12/3 66/9/3 70/7/3
f 77/1/1 75/2/1 73/3/1
f 75/2/2 80/4/2 76/5/2
f 79/6/3 78/7/3 80/8/3
f 74/9/4 80/10/4 78/11/4
f 73/3/5 76/5/5 74/9/5
f 77/12/6 74/9/6 78/7/6
f 85/1/1 83/2/1 81/3/1
f 83/2/5 88/4/5 84/5/5
f 87/6/2 86/7/2 88/8/2
f 82/9/4 88/10/4 86/11/4
f 81/3/6 84/5/6 82/9/6
f 85/12/3 82/9/3 86/7/3
f 93/1/1 91/2/1 89/3/1
f 91/2/2 96/4/2 92/5/2
f 95/6/3 94/7/3 96/8/3
f 90/9/4 96/10/4 94/11/4
f 89/3/5 92/5/5 90/9/5
f 93/12/6 90/9/6 94/7/6
f 101/1/1 99/2/1 97/3/1
f 99/2/5 104/4/5 100/5/5
f 103/6/2 102/7/2 104/8/2
f 98/9/4 104/10/4 102/11/4
f 97/3/6 100/5/6 98/9/6
f 101/12/3 98/9/3 102/7/3
f 109/1/1 107/2/1 105/3/1
f 107/2/2 112/4/2 108/5/2
f 111/6/3 110/7/3 112/8/3
f 106/9/4 112/10/4 110/11/4
f 105/3/5 108/5/5 106/9/5
f 109/12/6 106/9/6 110/7/6
f 117/1/1 115/2/1 113/3/1
f 115/2/5 120/4/5 116/5/5
f 119/6/2 118/7/2 120/8/2
f 114/9/4 120/10/4 118/11/4
f 113/3/6 116/5/6 114/9/6
f 117/12/3 114/9/3 118/7/3
f 125/1/1 123/2/1 121/3/1
f 123/2/2 128/4/2 124/5/2
f 127/6/3 126/7/3 128/8/3
f 122/9/4 128/10/4 126/11/4
f 121/3/5 124/5/5 122/9/5
f 125/12/6 122/9/6 126/7/6
f 133/1/1 131/2/1 129/3/1
f 131/2/5 136/4/5 132/5/5
f 135/6/2 134/7/2 136/8/2
f 130/9/4 136/10/4 134/11/4
f 129/3/6 132/5/6 130/9/6
f 133/12/3 130/9/3 134/7/3
f 141/1/1 139/2/1 137/3/1
f 139/2/2 144/4/2 140/5/2
f 143/6/3 142/7/3 144/8/3
f 138/9/4 144/10/4 142/11/4
f 137/3/5 140/5/5 138/9/5
f 141/12/6 138/9/6 142/7/6
f 149/1/1 147/2/1 145/3/1
f 147/2/2 152/4/2 148/5/2
f 151/6/3 150/7/3 152/8/3
f 146/9/4 152/10/4 150/11/4
f 145/3/5 148/5/5 146/9/5
f 149/12/6 146/9/6 150/7/6
f 157/1/1 155/2/1 153/3/1
f 155/2/5 160/4/5 156/5/5
f 159/6/2 158/7/2 160/8/2
f 154/9/4 160/10/4 158/11/4
f 153/3/6 156/5/6 154/9/6
f 157/12/3 154/9/3 158/7/3
f 165/1/1 163/2/1 161/3/1
f 163/2/5 168/4/5 164/5/5
f 167/6/2 166/7/2 168/8/2
f 162/9/4 168/10/4 166/11/4
f 161/3/6 164/5/6 162/9/6
f 165/12/3 162/9/3 166/7/3
f 173/1/1 171/2/1 169/3/1
f 171/2/2 176/4/2 172/5/2
f 175/6/3 174/7/3 176/8/3
f 170/9/4 176/10/4 174/11/4
f 169/3/5 172/5/5 170/9/5
f 173/12/6 170/9/6 174/7/6
f 5/1/1 7/13/1 3/2/1
f 3/2/2 7/14/2 8/4/2
f 7/6/3 5/12/3 6/7/3
f 2/9/4 4/5/4 8/10/4
f 1/3/5 3/2/5 4/5/5
f 5/12/6 1/3/6 2/9/6
f 13/1/1 15/13/1 11/2/1
f 11/2/2 15/14/2 16/4/2
f 15/6/3 13/12/3 14/7/3
f 10/9/4 12/5/4 16/10/4
f 9/3/5 11/2/5 12/5/5
f 13/12/6 9/3/6 10/9/6
f 21/1/1 23/13/1 19/2/1
f 19/2/5 23/14/5 24/4/5
f 23/6/2 21/12/2 22/7/2
f 18/9/4 20/5/4 24/10/4
f 17/3/6 19/2/6 20/5/6
f 21/12/3 17/3/3 18/9/3
f 29/1/1 31/13/1 27/2/1
f 27/2/5 31/14/5 32/4/5
f 31/6/2 29/12/2 30/7/2
f 26/9/4 28/5/4 32/10/4
f 25/3/6 27/2/6 28/5/6
f 29/12/3 25/3/3 26/9/3
f 37/1/1 39/13/1 35/2/1
f 35/2/2 39/14/2 40/4/2
f 39/6/3 37/12/3 38/7/3
f 34/9/4 36/5/4 40/10/4
f 33/3/5 35/2/5 36/5/5
f 37/12/6 33/3/6 34/9/6
f 45/1/1 47/13/1 43/2/1
f 43/2/2 47/14/2 48/4/2
f 47/6/3 45/12/3 46/7/3
f 42/9/4 44/5/4 48/10/4
f 41/3/5 43/2/5 44/5/5
f 45/12/6 41/3/6 42/9/6
f 53/1/1 55/13/1 51/2/1
f 51/2/5 55/14/5 56/4/5
f 55/6/2 53/12/2 54/7/2
f 50/9/4 52/5/4 56/10/4
f 49/3/6 51/2/6 52/5/6
f 53/12/3 49/3/3 50/9/3
f 61/1/1 63/13/1 59/2/1
f 59/2/2 63/14/2 64/4/2
f 63/6/3 61/12/3 62/7/3
f 58/9/4 60/5/4 64/10/4
f 57/3/5 59/2/5 60/5/5
f 61/12/6 57/3/6 58/9/6
f 69/1/1 71/13/1 67/2/1
f 67/2/5 71/14/5 72/4/5
f 71/6/2 69/12/2 70/7/2
f 66/9/4 68/5/4 72/10/4
f 65/3/6 67/2/6 68/5/6
f 69/12/3 65/3/3 66/9/3
f 77/1/1 79/13/1 75/2/1
f 75/2/2 79/14/2 80/4/2
f 79/6/3 77/12/3 78/7/3
f 74/9/4 76/5/4 80/10/4
f 73/3/5 75/2/5 76/5/5
f 77/12/6 73/3/6 74/9/6
f 85/1/1 87/13/1 83/2/1
f 83/2/5 87/14/5 88/4/5
f 87/6/2 85/12/2 86/7/2
f 82/9/4 84/5/4 88/10/4
f 81/3/6 83/2/6 84/5/6
f 85/12/3 81/3/3 82/9/3
f 93/1/1 95/13/1 91/2/1
f 91/2/2 95/14/2 96/4/2
f 95/6/3 93/12/3 94/7/3
f 90/9/4 92/5/4 96/10/4
f 89/3/5 91/2/5 92/5/5
f 93/12/6 89/3/6 90/9/6
f 101/1/1 103/13/1 99/2/1
f 99/2/5 103/14/5 104/4/5
f 103/6/2 101/12/2 102/7/2
f 98/9/4 100/5/4 104/10/4
f 97/3/6 99/2/6 100/5/6
f 101/12/3 97/3/3 98/9/3
f 109/1/1 111/13/1 107/2/1
f 107/2/2 111/14/2 112/4/2
f 111/6/3 109/12/3 110/7/3
f 106/9/4 108/5/4 112/10/4
f 105/3/5 107/2/5 108/5/5
f 109/12/6 105/3/6 106/9/6
f 117/1/1 119/13/1 115/2/1
f 115/2/5 119/14/5 120/4/5
f 119/6/2 117/12/2 118/7/2
f 114/9/4 116/5/4 120/10/4
f 113/3/6 115/2/6 116/5/6
f 117/12/3 113/3/3 114/9/3
f 125/1/1 127/13/1 123/2/1
f 123/2/2 127/14/2 128/4/2
f 127/6/3 125/12/3 126/7/3
f 122/9/4 124/5/4 128/10/4
f 121/3/5 123/2/5 124/5/5
f 125/12/6 121/3/6 122/9/6
f 133/1/1 135/13/1 131/2/1
f 131/2/5 135/14/5 136/4/5
f 135/6/2 133/12/2 134/7/2
f 130/9/4 132/5/4 136/10/4
f 129/3/6 131/2/6 132/5/6
f 133/12/3 129/3/3 130/9/3
f 141/1/1 143/13/1 139/2/1
f 139/2/2 143/14/2 144/4/2
f 143/6/3 141/12/3 142/7/3
f 138/9/4 140/5/4 144/10/4
f 137/3/5 139/2/5 140/5/5
f 141/12/6 137/3/6 138/9/6
f 149/1/1 151/13/1 147/2/1
f 147/2/2 151/14/2 152/4/2
f 151/6/3 149/12/3 150/7/3
f 146/9/4 148/5/4 152/10/4
f 145/3/5 147/2/5 148/5/5
f 149/12/6 145/3/6 146/9/6
f 157/1/1 159/13/1 155/2/1
f 155/2/5 159/14/5 160/4/5
f 159/6/2 157/12/2 158/7/2
f 154/9/4 156/5/4 160/10/4
f 153/3/6 155/2/6 156/5/6
f 157/12/3 153/3/3 154/9/3
f 165/1/1 167/13/1 163/2/1
f 163/2/5 167/14/5 168/4/5
f 167/6/2 165/12/2 166/7/2
f 162/9/4 164/5/4 168/10/4
f 161/3/6 163/2/6 164/5/6
f 165/12/3 161/3/3 162/9/3
f 173/1/1 175/13/1 171/2/1
f 171/2/2 175/14/2 176/4/2
f 175/6/3 173/12/3 174/7/3
f 170/9/4 172/5/4 176/10/4
f 169/3/5 171/2/5 172/5/5
f 173/12/6 169/3/6 170/9/6
